<?xml version="1.0" encoding="UTF-8"?>
<!DOCTYPE svg PUBLIC "-//W3C//DTD SVG 1.1//EN" "http://www.w3.org/Graphics/SVG/1.1/DTD/svg11.dtd">
<svg xmlns="http://www.w3.org/2000/svg" version="1.1" width="115px" height="116px" style="shape-rendering:geometricPrecision; text-rendering:geometricPrecision; image-rendering:optimizeQuality; fill-rule:evenodd; clip-rule:evenodd" xmlns:xlink="http://www.w3.org/1999/xlink">
<g><path style="opacity:0.983" fill="#f69223" d="M 25.5,4.5 C 46.5026,4.33338 67.5026,4.50004 88.5,5C 99.1446,6.97938 105.978,13.146 109,23.5C 109.667,46.1667 109.667,68.8333 109,91.5C 106.058,101.443 99.558,107.609 89.5,110C 67.8333,110.667 46.1667,110.667 24.5,110C 14.442,107.609 7.942,101.443 5,91.5C 4.33333,68.8333 4.33333,46.1667 5,23.5C 8.21782,13.1602 15.0511,6.82692 25.5,4.5 Z"/></g>
<g><path style="opacity:1" fill="#434241" d="M 31.5,23.5 C 34.5719,23.1826 37.5719,23.5159 40.5,24.5C 45.7531,32.6738 51.2531,40.6738 57,48.5C 62.7469,40.6738 68.2469,32.6738 73.5,24.5C 82.8447,22.4282 88.678,26.0949 91,35.5C 91.6667,50.5 91.6667,65.5 91,80.5C 88.1358,88.5363 82.3024,92.5363 73.5,92.5C 72.1667,92.1667 70.8333,91.8333 69.5,91.5C 69.8333,90.8333 70.1667,90.1667 70.5,89.5C 68.1667,88.8333 65.8333,88.1667 63.5,87.5C 66.9446,81.2907 69.7779,74.9574 72,68.5C 67,73.5 62,78.5 57,83.5C 52,78.5 47,73.5 42,68.5C 44.2221,74.9574 47.0554,81.2907 50.5,87.5C 48.1667,88.1667 45.8333,88.8333 43.5,89.5C 43.8333,90.1667 44.1667,90.8333 44.5,91.5C 36.2474,93.3935 29.4141,91.0602 24,84.5C 22.3938,68.2204 22.0605,51.8871 23,35.5C 24.6287,30.5503 27.462,26.5503 31.5,23.5 Z"/></g>
</svg>
